<svg xmlns="http://www.w3.org/2000/svg" version="1.1" xmlns:xlink="http://www.w3.org/1999/xlink" xmlns:svgjs="http://svgjs.dev/svgjs" width="4096" height="2160" preserveAspectRatio="none" viewBox="0 0 4096 2160"><g mask="url(&quot;#SvgjsMask1991&quot;)" fill="none"><rect width="4096" height="2160" x="0" y="0" fill="url(&quot;#SvgjsLinearGradient1992&quot;)"></rect><path d="M -618.8956765661954,1863 C -454.9,1546 -126.9,291.6 201.10432343380458,278 C 529.1,264.4 693.1,1646.2 1021.1043234338046,1795 C 1349.1,1943.8 1513.1,1000.8 1841.1043234338047,1022 C 2169.1,1043.2 2333.1,1889.6 2661.1043234338044,1901 C 2989.1,1912.4 3153.1,1232 3481.1043234338044,1079 C 3809.1,926 4178.13,1301 4301.104323433805,1136 C 4424.08,971 4137.02,430.4 4096,254" stroke="rgba(210, 80, 154, 1)" stroke-width="2"></path><path d="M -446.60398868175355,1371 C -282.6,1311 45.4,987.2 373.39601131824645,1071 C 701.4,1154.8 865.4,1834.8 1193.3960113182466,1790 C 1521.4,1745.2 1685.4,834 2013.3960113182466,847 C 2341.4,860 2505.4,1836.2 2833.3960113182466,1855 C 3161.4,1873.8 3325.4,1079 3653.3960113182466,941 C 3981.4,803 4384.88,1212.6 4473.396011318247,1165 C 4561.92,1117.4 4171.48,795.4 4096,703" stroke="rgba(126, 49, 140, 1)" stroke-width="2"></path><path d="M -1265.5161509640209,1919 C -1101.52,1566.6 -773.52,287.2 -445.5161509640208,157 C -117.52,26.8 46.48,1255.8 374.4838490359792,1268 C 702.48,1280.2 866.48,130 1194.4838490359791,218 C 1522.48,306 1686.48,1585.4 2014.4838490359791,1708 C 2342.48,1830.6 2506.48,875 2834.4838490359793,831 C 3162.48,787 3402.18,1541.4 3654.4838490359793,1488 C 3906.79,1434.6 4007.7,748.8 4096,564" stroke="rgba(186, 82, 146, 1)" stroke-width="2"></path><path d="M -699.4498068811038,344 C -535.45,564 -207.45,1318 120.55019311889627,1444 C 448.55,1570 612.55,1008.2 940.5501931188962,974 C 1268.55,939.8 1432.55,1277 1760.5501931188962,1273 C 2088.55,1269 2252.55,988.8 2580.5501931188965,954 C 2908.55,919.2 3072.55,1105.6 3400.5501931188965,1099 C 3728.55,1092.4 4081.46,865.4 4220.5501931188965,921 C 4359.64,976.6 4120.91,1285.8 4096,1377" stroke="rgba(186, 82, 146, 1)" stroke-width="2"></path><path d="M -846.1254868229214,217 C -682.13,546.4 -354.13,1872 -26.12548682292141,1864 C 301.87,1856 465.87,179.4 793.8745131770786,177 C 1121.87,174.6 1285.87,1821.4 1613.8745131770786,1852 C 1941.87,1882.6 2105.87,346.8 2433.8745131770784,330 C 2761.87,313.2 2925.87,1741.4 3253.8745131770784,1768 C 3581.87,1794.6 3905.45,461.8 4073.8745131770784,463 C 4242.3,464.2 4091.57,1511.8 4096,1774" stroke="rgba(186, 82, 146, 1)" stroke-width="2"></path><path d="M -1435.6844944714524,1430 C -1271.68,1344 -943.68,955.6 -615.6844944714524,1000 C -287.68,1044.4 -123.68,1675 204.31550552854765,1652 C 532.32,1629 696.32,871.4 1024.3155055285476,885 C 1352.32,898.6 1516.32,1802.2 1844.3155055285476,1720 C 2172.32,1637.8 2336.32,540.2 2664.315505528548,474 C 2992.32,407.8 3197.98,1383 3484.315505528548,1389 C 3770.65,1395 3973.66,681 4096,504" stroke="rgba(126, 49, 140, 1)" stroke-width="2"></path></g><defs><mask id="SvgjsMask1991"><rect width="4096" height="2160" fill="#ffffff"></rect></mask><linearGradient x1="11.82%" y1="-22.41%" x2="88.18%" y2="122.41%" gradientUnits="userSpaceOnUse" id="SvgjsLinearGradient1992"><stop stop-color="rgba(127, 49, 142, 1)" offset="0"></stop><stop stop-color="rgba(228, 78, 56, 1)" offset="1"></stop></linearGradient></defs></svg>